<svg xmlns="http://www.w3.org/2000/svg" viewBox="0 0 512 512" style="enable-background:new 0 0 512 512">
  <defs>
    <linearGradient id="grad1" x1="0%" y1="0%" x2="100%" y2="100%">
      <stop offset="0%" style="stop-color:#6C5CE7;stop-opacity:1"/>
      <stop offset="100%" style="stop-color:#4A90E2;stop-opacity:1"/>
    </linearGradient>
    <filter id="softGlow" height="130%">
      <feGaussianBlur in="SourceAlpha" stdDeviation="8" result="blur"/>
      <feFlood flood-color="#6C5CE7" flood-opacity="0.3" result="glowColor"/>
      <feComposite in="glowColor" in2="blur" operator="in" result="softGlow"/>
      <feMerge>
        <feMergeNode in="softGlow"/>
        <feMergeNode in="SourceGraphic"/>
      </feMerge>
    </filter>
  </defs>
  
  <path fill="url(#grad1)" d="M256 512C114.6 512 0 397.4 0 256S114.6 0 256 0s256 114.6 256 256-114.6 256-256 256z"/>
  
  <g filter="url(#softGlow)" transform="translate(80,80) scale(1.1)">
    <!-- Documento Estilizado -->
    <path fill="#FFFFFF" d="M180 80h200v300H180z" rx="15"/>
    <path fill="#4A90E2" d="M200 100h160v40H200z" rx="8"/>
    <path fill="#6C5CE7" d="M200 160h160v20H200zM200 200h160v20H200zM200 240h160v20H200zM200 280h160v20H200z" rx="5"/>
    
    <!-- Gráfico de Barras -->
    <g transform="translate(200,340)">
      <rect x="0" y="0" width="30" height="80" fill="#4A90E2" rx="5"/>
      <rect x="50" y="20" width="30" height="60" fill="#6C5CE7" rx="5"/>
      <rect x="100" y="40" width="30" height="40" fill="#4A90E2" rx="5"/>
    </g>
    
    <!-- Calculadora Flotante -->
    <g transform="translate(320,120) rotate(10)">
      <rect fill="#FFFFFF" x="0" y="0" width="120" height="140" rx="12"/>
      <rect fill="#6C5CE7" x="15" y="15" width="90" height="30" rx="5"/>
      <g fill="#4A90E2">
        <rect x="20" y="60" width="20" height="20" rx="3"/>
        <rect x="60" y="60" width="20" height="20" rx="3"/>
        <rect x="100" y="60" width="20" height="20" rx="3"/>
        <rect x="20" y="90" width="20" height="20" rx="3"/>
        <rect x="60" y="90" width="20" height="20" rx="3"/>
        <rect x="100" y="90" width="20" height="20" rx="3"/>
      </g>
    </g>
  </g>
</svg>